<mxfile host="app.diagrams.net" modified="2021-03-18T12:40:47.703Z" agent="5.0 (Macintosh; Intel Mac OS X 10_13_6) AppleWebKit/537.36 (KHTML, like Gecko) Chrome/88.0.4324.192 Safari/537.36 OPR/74.0.3911.218" etag="w_iympxO8vrNPilvTGCE" version="14.4.9" type="github" pages="2">
  <diagram name="Class Diagram (Commerce System)" id="e7e014a7-5840-1c2e-5031-d8a46d1fe8dd">
    <mxGraphModel dx="1372" dy="763" grid="1" gridSize="10" guides="1" tooltips="1" connect="1" arrows="1" fold="1" page="1" pageScale="1" pageWidth="1169" pageHeight="826" background="#ffffff" math="0" shadow="0">
      <root>
        <mxCell id="0" />
        <mxCell id="1" parent="0" />
        <mxCell id="FOlV6FnJeyHOlcCAPeN7-41" value="" style="rounded=0;whiteSpace=wrap;html=1;" parent="1" vertex="1">
          <mxGeometry x="600" y="60" width="300" height="180" as="geometry" />
        </mxCell>
        <mxCell id="FOlV6FnJeyHOlcCAPeN7-42" value="frame" style="shape=umlFrame;whiteSpace=wrap;html=1;rounded=0;shadow=0;comic=0;labelBackgroundColor=none;strokeWidth=1;fontFamily=Verdana;fontSize=10;align=center;" parent="1" vertex="1">
          <mxGeometry x="30" y="20" width="1055" height="800" as="geometry" />
        </mxCell>
        <mxCell id="FOlV6FnJeyHOlcCAPeN7-43" value="movie" style="swimlane;html=1;fontStyle=0;childLayout=stackLayout;horizontal=1;startSize=26;fillColor=none;horizontalStack=0;resizeParent=1;resizeLast=0;collapsible=1;marginBottom=0;swimlaneFillColor=#ffffff;rounded=0;shadow=0;comic=0;labelBackgroundColor=none;strokeWidth=1;fontFamily=Verdana;fontSize=10;align=center;" parent="1" vertex="1">
          <mxGeometry x="530" y="269" width="160" height="148" as="geometry" />
        </mxCell>
        <mxCell id="FOlV6FnJeyHOlcCAPeN7-44" value="- title: String" style="text;html=1;strokeColor=none;fillColor=none;align=left;verticalAlign=top;spacingLeft=4;spacingRight=4;whiteSpace=wrap;overflow=hidden;rotatable=0;points=[[0,0.5],[1,0.5]];portConstraint=eastwest;" parent="FOlV6FnJeyHOlcCAPeN7-43" vertex="1">
          <mxGeometry y="26" width="160" height="26" as="geometry" />
        </mxCell>
        <mxCell id="FOlV6FnJeyHOlcCAPeN7-45" value="- director: String" style="text;html=1;strokeColor=none;fillColor=none;align=left;verticalAlign=top;spacingLeft=4;spacingRight=4;whiteSpace=wrap;overflow=hidden;rotatable=0;points=[[0,0.5],[1,0.5]];portConstraint=eastwest;" parent="FOlV6FnJeyHOlcCAPeN7-43" vertex="1">
          <mxGeometry y="52" width="160" height="26" as="geometry" />
        </mxCell>
        <mxCell id="FOlV6FnJeyHOlcCAPeN7-46" value="- genre: String" style="text;html=1;strokeColor=none;fillColor=none;align=left;verticalAlign=top;spacingLeft=4;spacingRight=4;whiteSpace=wrap;overflow=hidden;rotatable=0;points=[[0,0.5],[1,0.5]];portConstraint=eastwest;" parent="FOlV6FnJeyHOlcCAPeN7-43" vertex="1">
          <mxGeometry y="78" width="160" height="32" as="geometry" />
        </mxCell>
        <mxCell id="FOlV6FnJeyHOlcCAPeN7-47" value="- year: dateTime" style="text;html=1;strokeColor=none;fillColor=none;align=left;verticalAlign=top;spacingLeft=4;spacingRight=4;whiteSpace=wrap;overflow=hidden;rotatable=0;points=[[0,0.5],[1,0.5]];portConstraint=eastwest;" parent="FOlV6FnJeyHOlcCAPeN7-43" vertex="1">
          <mxGeometry y="110" width="160" height="32" as="geometry" />
        </mxCell>
        <mxCell id="FOlV6FnJeyHOlcCAPeN7-48" value="&lt;p style=&quot;margin: 0px ; margin-top: 4px ; text-align: center&quot;&gt;&lt;i&gt;&amp;lt;&amp;lt;Interface&amp;gt;&amp;gt;&lt;/i&gt;&lt;br&gt;&lt;b&gt;payment&lt;/b&gt;&lt;/p&gt;&lt;hr size=&quot;1&quot;&gt;&lt;p style=&quot;margin: 0px ; margin-left: 4px&quot;&gt;- cardHolder: String&lt;/p&gt;&lt;p style=&quot;margin: 0px ; margin-left: 4px&quot;&gt;- cardNumber: int&lt;br&gt;- expiredate: dataType&lt;/p&gt;&lt;hr size=&quot;1&quot;&gt;&lt;p style=&quot;margin: 0px ; margin-left: 4px&quot;&gt;+ makePayment(Card): Type&lt;br&gt;+ getCard(holder, number, date)&lt;/p&gt;&lt;p style=&quot;margin: 0px ; margin-left: 4px&quot;&gt;&lt;span&gt;+ setCard( holder, number, date)&lt;/span&gt;&lt;/p&gt;" style="verticalAlign=top;align=left;overflow=fill;fontSize=12;fontFamily=Helvetica;html=1;rounded=0;shadow=0;comic=0;labelBackgroundColor=none;strokeWidth=1" parent="1" vertex="1">
          <mxGeometry x="330" y="580" width="190" height="150" as="geometry" />
        </mxCell>
        <mxCell id="FOlV6FnJeyHOlcCAPeN7-49" style="edgeStyle=orthogonalEdgeStyle;rounded=0;html=1;dashed=1;labelBackgroundColor=none;startFill=0;endArrow=open;endFill=0;endSize=10;fontFamily=Verdana;fontSize=10;" parent="1" source="FOlV6FnJeyHOlcCAPeN7-48" edge="1">
          <mxGeometry relative="1" as="geometry">
            <Array as="points">
              <mxPoint x="710" y="650" />
              <mxPoint x="710" y="465" />
            </Array>
            <mxPoint x="400" y="402" as="sourcePoint" />
            <mxPoint x="730" y="465" as="targetPoint" />
          </mxGeometry>
        </mxCell>
        <mxCell id="FOlV6FnJeyHOlcCAPeN7-50" value="&lt;div style=&quot;text-align: left&quot;&gt;&lt;span&gt;Class diagram&lt;/span&gt;&lt;/div&gt;&lt;div style=&quot;text-align: left&quot;&gt;&lt;span&gt;Sequence Diagram&lt;/span&gt;&lt;/div&gt;&lt;div style=&quot;text-align: left&quot;&gt;&lt;span&gt;State Diagram&lt;/span&gt;&lt;/div&gt;&lt;div style=&quot;text-align: left&quot;&gt;&lt;span&gt;Activity diagram&lt;/span&gt;&lt;/div&gt;" style="text;html=1;strokeColor=none;fillColor=none;align=center;verticalAlign=middle;whiteSpace=wrap;rounded=0;" parent="1" vertex="1">
          <mxGeometry x="920" y="70" width="110" height="60" as="geometry" />
        </mxCell>
        <mxCell id="FOlV6FnJeyHOlcCAPeN7-51" style="edgeStyle=orthogonalEdgeStyle;rounded=0;html=1;labelBackgroundColor=none;startFill=0;endArrow=open;endFill=0;endSize=10;fontFamily=Verdana;fontSize=10;dashed=1;exitX=1.021;exitY=0.231;exitDx=0;exitDy=0;exitPerimeter=0;entryX=0.413;entryY=0;entryDx=0;entryDy=0;entryPerimeter=0;" parent="1" source="FOlV6FnJeyHOlcCAPeN7-46" edge="1">
          <mxGeometry relative="1" as="geometry">
            <mxPoint x="382.4000000000001" y="475.832" as="sourcePoint" />
            <mxPoint x="796.0799999999999" y="410" as="targetPoint" />
            <Array as="points" />
          </mxGeometry>
        </mxCell>
        <mxCell id="FOlV6FnJeyHOlcCAPeN7-52" value="API payment&lt;br&gt;paypal&lt;br&gt;googlePay&lt;br&gt;mastercard&lt;br&gt;visa" style="shape=folder;fontStyle=1;spacingTop=10;tabWidth=40;tabHeight=14;tabPosition=left;html=1;" parent="1" vertex="1">
          <mxGeometry x="560" y="580" width="110" height="100" as="geometry" />
        </mxCell>
        <mxCell id="FOlV6FnJeyHOlcCAPeN7-53" value="" style="endArrow=diamondThin;endFill=1;endSize=24;html=1;" parent="1" edge="1">
          <mxGeometry width="160" relative="1" as="geometry">
            <mxPoint x="710" y="130" as="sourcePoint" />
            <mxPoint x="870" y="130" as="targetPoint" />
          </mxGeometry>
        </mxCell>
        <mxCell id="FOlV6FnJeyHOlcCAPeN7-54" value="" style="endArrow=diamondThin;endFill=0;endSize=24;html=1;" parent="1" edge="1">
          <mxGeometry width="160" relative="1" as="geometry">
            <mxPoint x="714" y="180" as="sourcePoint" />
            <mxPoint x="874" y="180" as="targetPoint" />
          </mxGeometry>
        </mxCell>
        <mxCell id="FOlV6FnJeyHOlcCAPeN7-55" value="Extends" style="endArrow=block;endSize=16;endFill=0;html=1;" parent="1" edge="1">
          <mxGeometry width="160" relative="1" as="geometry">
            <mxPoint x="710" y="80" as="sourcePoint" />
            <mxPoint x="870" y="80" as="targetPoint" />
          </mxGeometry>
        </mxCell>
        <mxCell id="FOlV6FnJeyHOlcCAPeN7-56" value="" style="endArrow=none;html=1;edgeStyle=orthogonalEdgeStyle;" parent="1" edge="1">
          <mxGeometry relative="1" as="geometry">
            <mxPoint x="713" y="230" as="sourcePoint" />
            <mxPoint x="873" y="230" as="targetPoint" />
          </mxGeometry>
        </mxCell>
        <mxCell id="FOlV6FnJeyHOlcCAPeN7-57" value="parent" style="edgeLabel;resizable=0;html=1;align=left;verticalAlign=bottom;" parent="FOlV6FnJeyHOlcCAPeN7-56" connectable="0" vertex="1">
          <mxGeometry x="-1" relative="1" as="geometry" />
        </mxCell>
        <mxCell id="FOlV6FnJeyHOlcCAPeN7-58" value="child" style="edgeLabel;resizable=0;html=1;align=right;verticalAlign=bottom;" parent="FOlV6FnJeyHOlcCAPeN7-56" connectable="0" vertex="1">
          <mxGeometry x="1" relative="1" as="geometry" />
        </mxCell>
        <mxCell id="FOlV6FnJeyHOlcCAPeN7-59" value="inheritance" style="text;html=1;strokeColor=none;fillColor=none;align=center;verticalAlign=middle;whiteSpace=wrap;rounded=0;" parent="1" vertex="1">
          <mxGeometry x="590" y="70" width="120" height="20" as="geometry" />
        </mxCell>
        <mxCell id="FOlV6FnJeyHOlcCAPeN7-60" value="Association" style="text;html=1;strokeColor=none;fillColor=none;align=center;verticalAlign=middle;whiteSpace=wrap;rounded=0;" parent="1" vertex="1">
          <mxGeometry x="590" y="120" width="120" height="20" as="geometry" />
        </mxCell>
        <mxCell id="FOlV6FnJeyHOlcCAPeN7-61" value="Aggregation" style="text;html=1;strokeColor=none;fillColor=none;align=center;verticalAlign=middle;whiteSpace=wrap;rounded=0;" parent="1" vertex="1">
          <mxGeometry x="590" y="170" width="120" height="20" as="geometry" />
        </mxCell>
        <mxCell id="FOlV6FnJeyHOlcCAPeN7-62" value="Composition" style="text;html=1;strokeColor=none;fillColor=none;align=center;verticalAlign=middle;whiteSpace=wrap;rounded=0;" parent="1" vertex="1">
          <mxGeometry x="590" y="210" width="120" height="20" as="geometry" />
        </mxCell>
        <mxCell id="FOlV6FnJeyHOlcCAPeN7-63" value="&lt;p style=&quot;margin: 0px ; margin-top: 4px ; text-align: center&quot;&gt;&lt;b&gt;customer&lt;/b&gt;&lt;/p&gt;&lt;hr size=&quot;1&quot;&gt;&lt;p style=&quot;margin: 0px ; margin-left: 4px&quot;&gt;&lt;span&gt;- firstName: String&lt;/span&gt;&lt;br&gt;&lt;span&gt;- lastName: String&lt;/span&gt;&lt;br&gt;&lt;span&gt;- birthdate: dateTime&lt;/span&gt;&lt;br&gt;&lt;span&gt;- address: String&lt;/span&gt;&lt;br&gt;&lt;span&gt;- phone: int&lt;/span&gt;&lt;br&gt;&lt;span&gt;- email: String&lt;/span&gt;&lt;br&gt;&lt;/p&gt;&lt;p style=&quot;margin: 0px ; margin-left: 4px&quot;&gt;&lt;br&gt;&lt;/p&gt;&lt;hr size=&quot;1&quot;&gt;&lt;p style=&quot;margin: 0px ; margin-left: 4px&quot;&gt;+ register()&lt;/p&gt;&lt;p style=&quot;margin: 0px ; margin-left: 4px&quot;&gt;+ login()&lt;/p&gt;&lt;p style=&quot;margin: 0px ; margin-left: 4px&quot;&gt;+ updateDetails()&lt;/p&gt;" style="verticalAlign=top;align=left;overflow=fill;fontSize=12;fontFamily=Helvetica;html=1;" parent="1" vertex="1">
          <mxGeometry x="130" y="90" width="160" height="200" as="geometry" />
        </mxCell>
        <mxCell id="FOlV6FnJeyHOlcCAPeN7-64" value="&lt;p style=&quot;margin: 0px ; margin-top: 4px ; text-align: center&quot;&gt;&lt;b&gt;email&lt;/b&gt;&lt;/p&gt;&lt;hr size=&quot;1&quot;&gt;&lt;p style=&quot;margin: 0px ; margin-left: 4px&quot;&gt;- to: String&lt;/p&gt;&lt;p style=&quot;margin: 0px ; margin-left: 4px&quot;&gt;- description: String&lt;/p&gt;&lt;hr size=&quot;1&quot;&gt;&lt;p style=&quot;margin: 0px ; margin-left: 4px&quot;&gt;+ sendEmail(to,description)&lt;/p&gt;" style="verticalAlign=top;align=left;overflow=fill;fontSize=12;fontFamily=Helvetica;html=1;" parent="1" vertex="1">
          <mxGeometry x="730" y="425" width="160" height="100" as="geometry" />
        </mxCell>
        <mxCell id="FOlV6FnJeyHOlcCAPeN7-65" value="&lt;p style=&quot;margin: 0px ; margin-top: 4px ; text-align: center&quot;&gt;&lt;b&gt;user&lt;/b&gt;&lt;/p&gt;&lt;hr size=&quot;1&quot;&gt;&lt;p style=&quot;margin: 0px ; margin-left: 4px&quot;&gt;&lt;span&gt;- userId: String&lt;/span&gt;&lt;br&gt;&lt;span&gt;- password: String&lt;/span&gt;&lt;br&gt;&lt;span&gt;- loginStatus: boolean&lt;/span&gt;&lt;br&gt;&lt;span&gt;- loginDetais: String&lt;/span&gt;&lt;br&gt;&lt;br&gt;&lt;/p&gt;&lt;hr size=&quot;1&quot;&gt;&lt;p style=&quot;margin: 0px ; margin-left: 4px&quot;&gt;+ loginVerification()&lt;/p&gt;&lt;p style=&quot;margin: 0px ; margin-left: 4px&quot;&gt;+ logonCredentials()&lt;/p&gt;" style="verticalAlign=top;align=left;overflow=fill;fontSize=12;fontFamily=Helvetica;html=1;" parent="1" vertex="1">
          <mxGeometry x="130" y="380" width="160" height="200" as="geometry" />
        </mxCell>
        <mxCell id="FOlV6FnJeyHOlcCAPeN7-66" value="Extends" style="endArrow=block;endSize=16;endFill=0;html=1;" parent="1" source="FOlV6FnJeyHOlcCAPeN7-63" target="FOlV6FnJeyHOlcCAPeN7-65" edge="1">
          <mxGeometry width="160" relative="1" as="geometry">
            <mxPoint x="154" y="280" as="sourcePoint" />
            <mxPoint x="990" y="290" as="targetPoint" />
          </mxGeometry>
        </mxCell>
        <mxCell id="FOlV6FnJeyHOlcCAPeN7-67" value="&lt;p style=&quot;margin: 0px ; margin-top: 4px ; text-align: center&quot;&gt;&lt;b&gt;Administrator&lt;/b&gt;&lt;/p&gt;&lt;hr size=&quot;1&quot;&gt;&lt;p style=&quot;margin: 0px ; margin-left: 4px&quot;&gt;- adminName: String&lt;/p&gt;&lt;p style=&quot;margin: 0px ; margin-left: 4px&quot;&gt;- email: String&lt;/p&gt;&lt;hr size=&quot;1&quot;&gt;&lt;p style=&quot;margin: 0px ; margin-left: 4px&quot;&gt;&lt;span&gt;+ updateCatalog(movie)&lt;/span&gt;&lt;br&gt;&lt;/p&gt;&lt;p style=&quot;margin: 0px ; margin-left: 4px&quot;&gt;&lt;span&gt;+ updateCupon (movie)&lt;/span&gt;&lt;/p&gt;&lt;p style=&quot;margin: 0px ; margin-left: 4px&quot;&gt;+ loginCredentials(user)&lt;/p&gt;" style="verticalAlign=top;align=left;overflow=fill;fontSize=12;fontFamily=Helvetica;html=1;" parent="1" vertex="1">
          <mxGeometry x="860" y="276" width="160" height="134" as="geometry" />
        </mxCell>
        <mxCell id="FOlV6FnJeyHOlcCAPeN7-68" value="&lt;p style=&quot;margin: 0px ; margin-top: 4px ; text-align: center&quot;&gt;&lt;b&gt;Shopping Cart&lt;/b&gt;&lt;/p&gt;&lt;hr size=&quot;1&quot;&gt;&lt;p style=&quot;margin: 0px ; margin-left: 4px&quot;&gt;- cartID: int&lt;/p&gt;&lt;p style=&quot;margin: 0px ; margin-left: 4px&quot;&gt;- protuctID&lt;/p&gt;&lt;p style=&quot;margin: 0px ; margin-left: 4px&quot;&gt;- quantity&lt;/p&gt;&lt;hr size=&quot;1&quot;&gt;&lt;p style=&quot;margin: 0px ; margin-left: 4px&quot;&gt;+ addCart()&lt;/p&gt;&lt;p style=&quot;margin: 0px ; margin-left: 4px&quot;&gt;+ updateQuantity()&lt;/p&gt;&lt;p style=&quot;margin: 0px ; margin-left: 4px&quot;&gt;+ deliverMovie()&lt;/p&gt;&lt;p style=&quot;margin: 0px ; margin-left: 4px&quot;&gt;+ paymentDetails&lt;/p&gt;" style="verticalAlign=top;align=left;overflow=fill;fontSize=12;fontFamily=Helvetica;html=1;" parent="1" vertex="1">
          <mxGeometry x="740" y="600" width="160" height="145" as="geometry" />
        </mxCell>
        <mxCell id="FOlV6FnJeyHOlcCAPeN7-69" value="&lt;p style=&quot;margin: 0px ; margin-top: 4px ; text-align: center&quot;&gt;&lt;b&gt;Order&lt;/b&gt;&lt;/p&gt;&lt;hr size=&quot;1&quot;&gt;&lt;p style=&quot;margin: 0px ; margin-left: 4px&quot;&gt;- orderID: int&lt;/p&gt;&lt;p style=&quot;margin: 0px ; margin-left: 4px&quot;&gt;- customerID: int&lt;/p&gt;&lt;p style=&quot;margin: 0px ; margin-left: 4px&quot;&gt;- orderDetails: int&lt;/p&gt;&lt;p style=&quot;margin: 0px ; margin-left: 4px&quot;&gt;- shippingID: String&lt;/p&gt;&lt;hr size=&quot;1&quot;&gt;&lt;p style=&quot;margin: 0px ; margin-left: 4px&quot;&gt;+ addOrder()&lt;/p&gt;" style="verticalAlign=top;align=left;overflow=fill;fontSize=12;fontFamily=Helvetica;html=1;" parent="1" vertex="1">
          <mxGeometry x="900" y="450" width="160" height="120" as="geometry" />
        </mxCell>
        <mxCell id="FOlV6FnJeyHOlcCAPeN7-70" value="&lt;p style=&quot;margin: 0px ; margin-top: 4px ; text-align: center&quot;&gt;&lt;b&gt;Order&lt;/b&gt;&lt;/p&gt;&lt;hr size=&quot;1&quot;&gt;&lt;p style=&quot;margin: 0px ; margin-left: 4px&quot;&gt;- shippingID&lt;span&gt;&amp;nbsp;int&lt;/span&gt;&lt;/p&gt;&lt;p style=&quot;margin: 0px ; margin-left: 4px&quot;&gt;- shippingCost: int&lt;/p&gt;&lt;p style=&quot;margin: 0px ; margin-left: 4px&quot;&gt;- type: String&lt;/p&gt;&lt;p style=&quot;margin: 0px ; margin-left: 4px&quot;&gt;- region: String&lt;/p&gt;&lt;p style=&quot;margin: 0px ; margin-left: 4px&quot;&gt;- Country: String&lt;/p&gt;&lt;hr size=&quot;1&quot;&gt;&lt;p style=&quot;margin: 0px ; margin-left: 4px&quot;&gt;+ updateShipment()&lt;/p&gt;" style="verticalAlign=top;align=left;overflow=fill;fontSize=12;fontFamily=Helvetica;html=1;" parent="1" vertex="1">
          <mxGeometry x="340" y="130" width="160" height="130" as="geometry" />
        </mxCell>
        <mxCell id="FOlV6FnJeyHOlcCAPeN7-71" value="" style="endArrow=diamondThin;endFill=1;endSize=24;html=1;entryX=0.994;entryY=0.535;entryDx=0;entryDy=0;entryPerimeter=0;" parent="1" source="FOlV6FnJeyHOlcCAPeN7-70" target="FOlV6FnJeyHOlcCAPeN7-63" edge="1">
          <mxGeometry width="160" relative="1" as="geometry">
            <mxPoint x="720" y="550" as="sourcePoint" />
            <mxPoint x="880" y="550" as="targetPoint" />
          </mxGeometry>
        </mxCell>
      </root>
    </mxGraphModel>
  </diagram>
  <diagram id="fcdiCRLa6fh4O1pz1YvY" name="Page-2">
    <mxGraphModel dx="1580" dy="869" grid="1" gridSize="10" guides="1" tooltips="1" connect="1" arrows="1" fold="1" page="1" pageScale="1" pageWidth="1100" pageHeight="850" math="0" shadow="0">
      <root>
        <mxCell id="yz-MA-khaxjHop5y5BNe-0" />
        <mxCell id="yz-MA-khaxjHop5y5BNe-1" parent="yz-MA-khaxjHop5y5BNe-0" />
        <mxCell id="yz-MA-khaxjHop5y5BNe-2" value="" style="rounded=0;whiteSpace=wrap;html=1;" vertex="1" parent="yz-MA-khaxjHop5y5BNe-1">
          <mxGeometry x="235" y="130" width="180" height="20" as="geometry" />
        </mxCell>
        <mxCell id="yz-MA-khaxjHop5y5BNe-3" value="Find Domain Classes" style="text;html=1;strokeColor=none;fillColor=none;align=center;verticalAlign=middle;whiteSpace=wrap;rounded=0;" vertex="1" parent="yz-MA-khaxjHop5y5BNe-1">
          <mxGeometry x="255" y="130" width="120" height="20" as="geometry" />
        </mxCell>
        <mxCell id="yz-MA-khaxjHop5y5BNe-7" value="" style="rounded=1;whiteSpace=wrap;html=1;fillColor=#60a917;strokeColor=#2D7600;fontColor=#ffffff;" vertex="1" parent="yz-MA-khaxjHop5y5BNe-1">
          <mxGeometry x="205" y="130" width="20" height="20" as="geometry" />
        </mxCell>
        <mxCell id="yz-MA-khaxjHop5y5BNe-8" value="1" style="text;html=1;align=center;verticalAlign=middle;whiteSpace=wrap;rounded=0;" vertex="1" parent="yz-MA-khaxjHop5y5BNe-1">
          <mxGeometry x="205" y="130" width="20" height="20" as="geometry" />
        </mxCell>
        <mxCell id="yz-MA-khaxjHop5y5BNe-20" value="" style="rounded=0;whiteSpace=wrap;html=1;" vertex="1" parent="yz-MA-khaxjHop5y5BNe-1">
          <mxGeometry x="235" y="160" width="180" height="20" as="geometry" />
        </mxCell>
        <mxCell id="yz-MA-khaxjHop5y5BNe-21" value="Show Inheritance" style="text;html=1;strokeColor=none;fillColor=none;align=center;verticalAlign=middle;whiteSpace=wrap;rounded=0;" vertex="1" parent="yz-MA-khaxjHop5y5BNe-1">
          <mxGeometry x="255" y="160" width="120" height="20" as="geometry" />
        </mxCell>
        <mxCell id="yz-MA-khaxjHop5y5BNe-22" value="" style="rounded=1;whiteSpace=wrap;html=1;fillColor=#dae8fc;strokeColor=#6c8ebf;" vertex="1" parent="yz-MA-khaxjHop5y5BNe-1">
          <mxGeometry x="205" y="160" width="20" height="20" as="geometry" />
        </mxCell>
        <mxCell id="yz-MA-khaxjHop5y5BNe-23" value="4" style="text;html=1;align=center;verticalAlign=middle;whiteSpace=wrap;rounded=0;" vertex="1" parent="yz-MA-khaxjHop5y5BNe-1">
          <mxGeometry x="205" y="160" width="20" height="20" as="geometry" />
        </mxCell>
        <mxCell id="yz-MA-khaxjHop5y5BNe-40" value="" style="rounded=0;whiteSpace=wrap;html=1;" vertex="1" parent="yz-MA-khaxjHop5y5BNe-1">
          <mxGeometry x="475" y="130" width="180" height="20" as="geometry" />
        </mxCell>
        <mxCell id="yz-MA-khaxjHop5y5BNe-41" value="Draw Class Diagram" style="text;html=1;strokeColor=none;fillColor=none;align=center;verticalAlign=middle;whiteSpace=wrap;rounded=0;" vertex="1" parent="yz-MA-khaxjHop5y5BNe-1">
          <mxGeometry x="495" y="130" width="120" height="20" as="geometry" />
        </mxCell>
        <mxCell id="yz-MA-khaxjHop5y5BNe-42" value="" style="rounded=1;whiteSpace=wrap;html=1;fillColor=#dae8fc;strokeColor=#6c8ebf;" vertex="1" parent="yz-MA-khaxjHop5y5BNe-1">
          <mxGeometry x="445" y="130" width="20" height="20" as="geometry" />
        </mxCell>
        <mxCell id="yz-MA-khaxjHop5y5BNe-43" value="2" style="text;html=1;align=center;verticalAlign=middle;whiteSpace=wrap;rounded=0;" vertex="1" parent="yz-MA-khaxjHop5y5BNe-1">
          <mxGeometry x="445" y="130" width="20" height="20" as="geometry" />
        </mxCell>
        <mxCell id="yz-MA-khaxjHop5y5BNe-44" value="" style="rounded=0;whiteSpace=wrap;html=1;" vertex="1" parent="yz-MA-khaxjHop5y5BNe-1">
          <mxGeometry x="475" y="160" width="180" height="20" as="geometry" />
        </mxCell>
        <mxCell id="yz-MA-khaxjHop5y5BNe-45" value="Adding association Class" style="text;html=1;strokeColor=none;fillColor=none;align=center;verticalAlign=middle;whiteSpace=wrap;rounded=0;" vertex="1" parent="yz-MA-khaxjHop5y5BNe-1">
          <mxGeometry x="475" y="160" width="180" height="20" as="geometry" />
        </mxCell>
        <mxCell id="yz-MA-khaxjHop5y5BNe-46" value="" style="rounded=1;whiteSpace=wrap;html=1;fillColor=#fff2cc;strokeColor=#d6b656;" vertex="1" parent="yz-MA-khaxjHop5y5BNe-1">
          <mxGeometry x="445" y="160" width="20" height="20" as="geometry" />
        </mxCell>
        <mxCell id="yz-MA-khaxjHop5y5BNe-47" value="5" style="text;html=1;align=center;verticalAlign=middle;whiteSpace=wrap;rounded=0;" vertex="1" parent="yz-MA-khaxjHop5y5BNe-1">
          <mxGeometry x="445" y="160" width="20" height="20" as="geometry" />
        </mxCell>
        <mxCell id="yz-MA-khaxjHop5y5BNe-48" value="" style="rounded=0;whiteSpace=wrap;html=1;" vertex="1" parent="yz-MA-khaxjHop5y5BNe-1">
          <mxGeometry x="715" y="130" width="180" height="20" as="geometry" />
        </mxCell>
        <mxCell id="yz-MA-khaxjHop5y5BNe-49" value="Show Relationship" style="text;html=1;strokeColor=none;fillColor=none;align=center;verticalAlign=middle;whiteSpace=wrap;rounded=0;" vertex="1" parent="yz-MA-khaxjHop5y5BNe-1">
          <mxGeometry x="735" y="130" width="120" height="20" as="geometry" />
        </mxCell>
        <mxCell id="yz-MA-khaxjHop5y5BNe-50" value="" style="rounded=1;whiteSpace=wrap;html=1;fillColor=#ffe6cc;strokeColor=#d79b00;" vertex="1" parent="yz-MA-khaxjHop5y5BNe-1">
          <mxGeometry x="685" y="130" width="20" height="20" as="geometry" />
        </mxCell>
        <mxCell id="yz-MA-khaxjHop5y5BNe-51" value="3" style="text;html=1;align=center;verticalAlign=middle;whiteSpace=wrap;rounded=0;" vertex="1" parent="yz-MA-khaxjHop5y5BNe-1">
          <mxGeometry x="685" y="130" width="20" height="20" as="geometry" />
        </mxCell>
        <mxCell id="yz-MA-khaxjHop5y5BNe-52" value="" style="rounded=0;whiteSpace=wrap;html=1;" vertex="1" parent="yz-MA-khaxjHop5y5BNe-1">
          <mxGeometry x="715" y="160" width="180" height="20" as="geometry" />
        </mxCell>
        <mxCell id="yz-MA-khaxjHop5y5BNe-53" value="Show Dependence Relationship" style="text;html=1;strokeColor=none;fillColor=none;align=center;verticalAlign=middle;whiteSpace=wrap;rounded=0;" vertex="1" parent="yz-MA-khaxjHop5y5BNe-1">
          <mxGeometry x="715" y="160" width="180" height="20" as="geometry" />
        </mxCell>
        <mxCell id="yz-MA-khaxjHop5y5BNe-54" value="" style="rounded=1;whiteSpace=wrap;html=1;fillColor=#d5e8d4;strokeColor=#82b366;" vertex="1" parent="yz-MA-khaxjHop5y5BNe-1">
          <mxGeometry x="685" y="160" width="20" height="20" as="geometry" />
        </mxCell>
        <mxCell id="yz-MA-khaxjHop5y5BNe-55" value="6" style="text;html=1;align=center;verticalAlign=middle;whiteSpace=wrap;rounded=0;" vertex="1" parent="yz-MA-khaxjHop5y5BNe-1">
          <mxGeometry x="685" y="160" width="20" height="20" as="geometry" />
        </mxCell>
        <mxCell id="yz-MA-khaxjHop5y5BNe-57" value="&lt;h1&gt;&lt;font style=&quot;font-size: 15px&quot;&gt;1 What is Class Diagram?&amp;nbsp;&lt;/font&gt;&lt;/h1&gt;&lt;p&gt;&lt;span style=&quot;text-align: center&quot;&gt;Class Diagram is one of the relevant UML diagrams for software development which shows the object classes and the structure of system by showing the system&#39;s classes, their attibutes, operations (or methods) and associations between these classes.&lt;/span&gt;&lt;br&gt;&lt;/p&gt;" style="text;html=1;strokeColor=none;fillColor=none;spacing=5;spacingTop=-20;whiteSpace=wrap;overflow=hidden;rounded=0;" vertex="1" parent="yz-MA-khaxjHop5y5BNe-1">
          <mxGeometry x="130" y="10" width="900" height="90" as="geometry" />
        </mxCell>
        <mxCell id="yz-MA-khaxjHop5y5BNe-58" value="Class Diagram" style="text;html=1;align=center;verticalAlign=middle;whiteSpace=wrap;rounded=0;fontSize=22;fontStyle=5;fontColor=#C982FF;" vertex="1" parent="yz-MA-khaxjHop5y5BNe-1">
          <mxGeometry x="410" y="10" width="170" height="20" as="geometry" />
        </mxCell>
        <mxCell id="yz-MA-khaxjHop5y5BNe-60" value="&lt;h1 style=&quot;font-size: 18px&quot;&gt;&lt;pre style=&quot;background-color: #2b2b2b ; color: #a9b7c6 ; font-family: &amp;#34;jetbrains mono&amp;#34; , monospace ; font-size: 9.8pt&quot;&gt;Class Student {&lt;br&gt;    &lt;span style=&quot;color: #cc7832&quot;&gt;private int &lt;/span&gt;id&lt;span style=&quot;color: #cc7832&quot;&gt;;&lt;br&gt;&lt;/span&gt;&lt;span style=&quot;color: #cc7832&quot;&gt;    public int &lt;/span&gt;roll No&lt;span style=&quot;color: #cc7832&quot;&gt;;&lt;br&gt;&lt;/span&gt;&lt;span style=&quot;color: #cc7832&quot;&gt;    public &lt;/span&gt;Sting name&lt;span style=&quot;color: #cc7832&quot;&gt;;&lt;br&gt;&lt;/span&gt;&lt;span style=&quot;color: #cc7832&quot;&gt;    public &lt;/span&gt;String stabdard&lt;span style=&quot;color: #cc7832&quot;&gt;;&lt;br&gt;&lt;/span&gt;&lt;span style=&quot;color: #cc7832&quot;&gt;    protected int &lt;/span&gt;totalMarks&lt;span style=&quot;color: #cc7832&quot;&gt;;&lt;br&gt;&lt;/span&gt;&lt;span style=&quot;color: #cc7832&quot;&gt;        &lt;br&gt;&lt;/span&gt;&lt;span style=&quot;color: #cc7832&quot;&gt;        public boolean &lt;/span&gt;registerStudent (string name&lt;span style=&quot;color: #cc7832&quot;&gt;, &lt;/span&gt;string standard){&lt;br&gt;            &lt;span style=&quot;color: #808080&quot;&gt;//statement of code&lt;br&gt;&lt;/span&gt;&lt;span style=&quot;color: #808080&quot;&gt;        &lt;/span&gt;}&lt;br&gt;        &lt;br&gt;        &lt;span style=&quot;color: #cc7832&quot;&gt;public int &lt;/span&gt;getRoolNo() {&lt;br&gt;            &lt;br&gt;        }&lt;br&gt;        }&lt;/pre&gt;&lt;/h1&gt;" style="text;html=1;strokeColor=none;fillColor=none;spacing=0;spacingTop=0;whiteSpace=wrap;overflow=hidden;rounded=0;fontSize=18;fontColor=#330000;" vertex="1" parent="yz-MA-khaxjHop5y5BNe-1">
          <mxGeometry x="240" y="180" width="550" height="270" as="geometry" />
        </mxCell>
      </root>
    </mxGraphModel>
  </diagram>
</mxfile>
